#tb 0: 1000000/23976023
0,          0,          0,        1,  3686400, 0xcab2cf91
0,          1,          1,        1,  3686400, 0xf8ca574b
0,          2,          2,        1,  3686400, 0x8433bae1
0,          3,          3,        1,  3686400, 0x43082f7d
0,          4,          4,        1,  3686400, 0x7a94eb93
0,          5,          5,        1,  3686400, 0x3718db8c
0,          6,          6,        1,  3686400, 0x64942d1d
0,          7,          7,        1,  3686400, 0x9cda1cb0
0,          8,          8,        1,  3686400, 0x4e8995e4
0,          9,          9,        1,  3686400, 0x231cf996
0,         10,         10,        1,  3686400, 0xe7b20103
0,         11,         11,        1,  3686400, 0x24480bfa
0,         12,         12,        1,  3686400, 0x26c9497f
0,         13,         13,        1,  3686400, 0x45e2bfc9
0,         14,         14,        1,  3686400, 0x513386c2
0,         15,         15,        1,  3686400, 0xeeb4b506
0,         16,         16,        1,  3686400, 0x58c2736b
0,         17,         17,        1,  3686400, 0xb6ed645d
0,         18,         18,        1,  3686400, 0xf272840c
0,         19,         19,        1,  3686400, 0x5aec051b
0,         20,         20,        1,  3686400, 0x3b0ab5dc
0,         21,         21,        1,  3686400, 0xdb3ed68b
0,         22,         22,        1,  3686400, 0x215e5ae0
0,         23,         23,        1,  3686400, 0xde13328d
0,         24,         24,        1,  3686400, 0xe75626ad
0,         25,         25,        1,  3686400, 0x1b0b4e4f
0,         26,         26,        1,  3686400, 0x3e0dc086
0,         27,         27,        1,  3686400, 0x8d6082b0
